<?xml version="1.0" standalone="no"?>
<!DOCTYPE svg PUBLIC "-//W3C//DTD SVG 20010904//EN"
 "http://www.w3.org/TR/2001/REC-SVG-20010904/DTD/svg10.dtd">
<svg version="1.0" xmlns="http://www.w3.org/2000/svg"
 width="87.000000pt" height="87.000000pt" viewBox="0 0 87.000000 87.000000"
 preserveAspectRatio="xMidYMid meet">
<metadata>
Created by potrace 1.14, written by Peter Selinger 2001-2017
</metadata>
<g transform="translate(0.000000,87.000000) scale(0.100000,-0.100000)"
fill="#000000" stroke="none">
<path d="M199 641 c-39 -40 -40 -93 -2 -133 15 -15 32 -28 38 -28 6 0 19 -15
29 -34 10 -18 28 -38 39 -43 12 -5 76 -10 141 -11 65 -1 121 -4 123 -6 3 -3
-5 -13 -16 -23 -19 -16 -42 -18 -179 -19 -86 -1 -167 -2 -179 -3 -18 -1 -14
-9 32 -56 l54 -55 171 0 c98 0 180 4 191 10 24 13 49 61 49 94 0 28 -45 86
-66 86 -8 0 -18 10 -23 23 -21 53 -42 61 -178 62 -132 1 -157 9 -111 38 17 11
58 15 153 15 72 0 150 1 175 1 l44 1 -54 55 -54 55 -174 0 -174 0 -29 -29z
m383 -23 l20 -23 -142 -3 c-152 -3 -183 -12 -201 -59 -11 -30 -24 -29 -45 2
-20 31 -11 79 19 93 12 6 89 11 176 11 147 1 154 0 173 -21z m-27 -164 c8 -11
15 -22 15 -25 0 -3 -56 -5 -124 -5 -87 1 -129 6 -140 15 -37 31 -19 37 109 35
110 -1 128 -4 140 -20z m90 -83 c16 -26 12 -65 -8 -85 -21 -21 -31 -22 -184
-23 -158 -2 -161 -1 -184 23 l-22 24 135 0 c153 0 192 9 209 49 9 20 18 27 31
23 10 -2 20 -8 23 -11z"/>
</g>
</svg>
